<svg xmlns="http://www.w3.org/2000/svg" width="250.003" height="30" viewBox="0 0 250.003 30">
    <path style="fill:none" d="M0 0h250v30H0z"/>
    <path data-name="패스 1" d="M296.339 293.132a26.482 26.482 0 0 0-.418 1.477 2.228 2.228 0 0 1 1.146-1.451 5.948 5.948 0 0 1 4.716-2.3v-.017c-3.387-.973-4.438.141-4.732.665a11.539 11.539 0 0 0-.711 1.622" transform="translate(-295.65 -282.371)" style="fill:#2a72e5"/>
    <path data-name="패스 2" d="m299.849 287.927-.5.478c.573-.47 1.518-.361 2.973.345a6.322 6.322 0 0 1 1.187-1.522c-.69-.5-1.389-.941-1.833-.735a15.823 15.823 0 0 0-1.829 1.434" transform="translate(-295.65 -282.371)" style="fill:#2a72e5"/>
    <path data-name="패스 3" d="M306.811 284.006c-.517.19-1.206.444-1.718.653a6.243 6.243 0 0 1 .719.923 16.991 16.991 0 0 1 2.4-1.07c-.139-.578-.173-.867 0-.94-.423.129-.989.288-1.408.434" transform="translate(-295.65 -282.371)" style="fill:#2a72e5"/>
    <path data-name="패스 4" d="M315.21 282.426a82.31 82.31 0 0 0-2.62.254c-.41.1-.591.248-.794.866a29.713 29.713 0 0 1 3.236-.432 1.769 1.769 0 0 1 1.407-.743l-1.229.055" transform="translate(-295.65 -282.371)" style="fill:#2a72e5"/>
    <path data-name="패스 5" d="M323.951 282.9a81.457 81.457 0 0 0-2.457-.339 3.145 3.145 0 0 0-2.106.5 31.921 31.921 0 0 1 3.367.354 4.22 4.22 0 0 1 2.642-.231c-.434-.086-1.01-.212-1.446-.284" transform="translate(-295.65 -282.371)" style="fill:#2a72e5"/>
    <path data-name="패스 6" d="M331.838 285.392a55.084 55.084 0 0 0-1.829-.815 5.638 5.638 0 0 0-3.445-.281 20.953 20.953 0 0 1 2.633 1.012 6.424 6.424 0 0 1 4.3 1.006c-.495-.285-1.153-.671-1.662-.922" transform="translate(-295.65 -282.371)" style="fill:#2a72e5"/>
    <path data-name="패스 7" d="M339.664 293.59a12.508 12.508 0 0 0-1.511-2.974l-.39-.537a7.477 7.477 0 0 0-5.92-3.186 8.45 8.45 0 0 1 1.509 1.478c3.979.563 6.718 4.061 6.977 8.912a12.385 12.385 0 0 0-.665-3.693" transform="translate(-295.65 -282.371)" style="fill:#2a72e5"/>
    <path data-name="패스 8" d="M333.977 308.453a17.269 17.269 0 0 0 2.156-1.651c.254-.247.6-.573.839-.832 4.963-5.751 2.708-14.05-2.621-15.555a4.024 4.024 0 0 1 .092.8v.143a4.038 4.038 0 0 1-.093.784c5.7 2.573 5.141 12.841-.908 16.646l.535-.331" transform="translate(-295.65 -282.371)" style="fill:#2a72e5"/>
    <path data-name="패스 9" d="M326.523 311.477a65.39 65.39 0 0 0 2.464-.692c7.3-2.743 8.461-13.942 4.365-16.636a8.163 8.163 0 0 1-1.508 1.432c3.465 3.821-.086 14.616-6.589 16.166l1.268-.27" transform="translate(-295.65 -282.371)" style="fill:#2a72e5"/>
    <path data-name="패스 10" d="M318.031 312.371a83.579 83.579 0 0 0 2.294-.043c6.061-.626 10.375-11.757 8.874-15.24a20.117 20.117 0 0 1-2.633.936c-.014 4.452-6.007 14.4-10.305 14.288.531.019 1.239.058 1.77.059" transform="translate(-295.65 -282.371)" style="fill:#2a72e5"/>
    <path data-name="패스 11" d="M309.24 311.224c.677.163 1.582.372 2.263.511 2.529.186 8.9-8.4 11.249-12.938a31.9 31.9 0 0 1-3.376.255c-1.836 1.782-6.68 7.387-7.632 8.493-2.452 2.846-3.363 3.386-3.695 3.338l1.191.341" transform="translate(-295.65 -282.371)" style="fill:#2a72e5"/>
    <path data-name="패스 12" d="M301.852 308.009a20.3 20.3 0 0 0 2.292 1.328l.065.032c.136-.724 6.163-7.924 10.816-10.5a30.089 30.089 0 0 1-3.229-.526c-5.559 2.131-11.234 8.65-10.257 9.45l.313.216" transform="translate(-295.65 -282.371)" style="fill:#2a72e5"/>
    <path data-name="패스 13" d="M297.829 304.114c.263.354.618.824.9 1.16-1.252-1.908 4.027-6.849 9.49-8a17.631 17.631 0 0 1-2.4-1.139c-5.027.546-9.811 4.109-8.827 6.572.241.432.564 1.007.842 1.408" transform="translate(-295.65 -282.371)" style="fill:#2a72e5"/>
    <path data-name="패스 14" d="M295.652 297.126v.241c.022.418.057.974.1 1.389-.135-2.71 3.98-4.461 7.758-4.337a6.579 6.579 0 0 1-1.188-1.559c-3.194-.41-4.94.414-5.843 1.176a6.6 6.6 0 0 0-.828 3.09" transform="translate(-295.65 -282.371)" style="fill:#2a72e5"/>
    <g>
        <path data-name="패스 15" d="M66.878 6.377H54.03v2.582h4.913v14.6h3.045v-14.6h4.89z"/>
        <path data-name="패스 16" d="M76.633 11.975a5.279 5.279 0 0 0-1.9-1.145 7.926 7.926 0 0 0-4.951 0 5.28 5.28 0 0 0-1.891 1.144 5.11 5.11 0 0 0-1.214 1.844 6.86 6.86 0 0 0-.432 2.518v1.506a6.868 6.868 0 0 0 .432 2.505 5.086 5.086 0 0 0 1.214 1.857 5.3 5.3 0 0 0 1.891 1.144 7.935 7.935 0 0 0 4.951 0 5.277 5.277 0 0 0 1.9-1.144 5.086 5.086 0 0 0 1.214-1.857 6.868 6.868 0 0 0 .432-2.505v-1.506a6.86 6.86 0 0 0-.432-2.518 5.11 5.11 0 0 0-1.214-1.843zm-3.18 8.954a3.977 3.977 0 0 1-2.385 0 2.462 2.462 0 0 1-.946-.57 2.647 2.647 0 0 1-.628-1.028 4.616 4.616 0 0 1-.229-1.539v-1.414a3.4 3.4 0 0 1 .81-2.566 3.546 3.546 0 0 1 4.372 0 3.407 3.407 0 0 1 .81 2.566v1.414a4.623 4.623 0 0 1-.23 1.539 2.67 2.67 0 0 1-.627 1.028 2.469 2.469 0 0 1-.947.57z"/>
        <path data-name="패스 17" d="M92.053 10.712h-3.8l-4.716 5.334V6.377h-3V23.56h3v-3.825l1.415-1.572 3.448 5.379.012.018h3.828l-5.187-7.521z"/>
        <path data-name="패스 18" d="M102.212 11.52a5.019 5.019 0 0 0-1.646-.806 8.045 8.045 0 0 0-4.963.245 12.439 12.439 0 0 0-2.208 1.2l-.033.022 1.483 2.2.033-.026a5.7 5.7 0 0 1 3.591-1.266 2.407 2.407 0 0 1 1.7.51 2.254 2.254 0 0 1 .532 1.675v.447h-2.88a8.052 8.052 0 0 0-2.282.28 4.112 4.112 0 0 0-1.509.772 2.8 2.8 0 0 0-.823 1.164 4.216 4.216 0 0 0-.245 1.462v.741a3.275 3.275 0 0 0 1.149 2.661 4.946 4.946 0 0 0 3.224.947 5.338 5.338 0 0 0 1.074-.116 5.609 5.609 0 0 0 1.073-.339 3.841 3.841 0 0 0 .925-.562 2.206 2.206 0 0 0 .531-.624l.042 1.456h2.7v-9.008a3.823 3.823 0 0 0-.386-1.744 3.744 3.744 0 0 0-1.082-1.291zm-1.512 6.548v.308a7.939 7.939 0 0 1-.069 1.164 1.5 1.5 0 0 1-.452.824 3.579 3.579 0 0 1-2.614.846 2.035 2.035 0 0 1-1.273-.339 1.137 1.137 0 0 1-.425-.942v-.279a1.544 1.544 0 0 1 .44-1.153 2.271 2.271 0 0 1 1.583-.429z"/>
        <path data-name="패스 19" d="M123.246 11.651a3.984 3.984 0 0 0-1.416-.913 4.786 4.786 0 0 0-1.694-.3 5.109 5.109 0 0 0-2.394.492 4.526 4.526 0 0 0-1.56 1.412 2.875 2.875 0 0 0-1.275-1.366 4.278 4.278 0 0 0-2.14-.538 4.325 4.325 0 0 0-2.164.515 3.458 3.458 0 0 0-1.342 1.354v-1.591h-2.837v12.848h3v-7.872a2.653 2.653 0 0 1 .637-1.942 2.26 2.26 0 0 1 1.664-.637 3.044 3.044 0 0 1 .892.126 1.653 1.653 0 0 1 .713.441 2.285 2.285 0 0 1 .489.843 4.118 4.118 0 0 1 .184 1.331v7.71h3v-7.756a3.643 3.643 0 0 1 .205-1.307 2.307 2.307 0 0 1 .524-.831 1.782 1.782 0 0 1 .737-.431 3.077 3.077 0 0 1 1.7-.012 1.706 1.706 0 0 1 .725.419 2.1 2.1 0 0 1 .5.853 4.555 4.555 0 0 1 .183 1.4v7.664h3v-8.266a5.755 5.755 0 0 0-.362-2.123 4.455 4.455 0 0 0-.969-1.523z"/>
        <path data-name="패스 20" d="M135.998 11.52a5.019 5.019 0 0 0-1.646-.806 8.045 8.045 0 0 0-4.963.245 12.439 12.439 0 0 0-2.208 1.2l-.033.022 1.483 2.2.033-.026a5.7 5.7 0 0 1 3.591-1.266 2.408 2.408 0 0 1 1.7.51 2.254 2.254 0 0 1 .532 1.675v.447h-2.88a8.053 8.053 0 0 0-2.282.28 4.125 4.125 0 0 0-1.51.772 2.8 2.8 0 0 0-.822 1.164 4.216 4.216 0 0 0-.246 1.462v.741a3.275 3.275 0 0 0 1.15 2.661 4.945 4.945 0 0 0 3.223.947 5.322 5.322 0 0 0 1.073-.119 5.6 5.6 0 0 0 1.074-.339 3.842 3.842 0 0 0 .925-.562 2.2 2.2 0 0 0 .53-.624l.043 1.456h2.7v-9.008a3.811 3.811 0 0 0-.387-1.744 3.731 3.731 0 0 0-1.08-1.288zm-1.512 6.548v.308a7.939 7.939 0 0 1-.069 1.164 1.5 1.5 0 0 1-.452.824 3.579 3.579 0 0 1-2.614.846 2.035 2.035 0 0 1-1.273-.339 1.138 1.138 0 0 1-.425-.942v-.279a1.544 1.544 0 0 1 .44-1.153 2.27 2.27 0 0 1 1.582-.429z"/>
        <path data-name="패스 21" d="M151.719 10.712h-3.794l-4.716 5.334V6.377h-3V23.56h3v-3.825l1.415-1.572 3.448 5.379.012.018h3.828l-5.192-7.521z"/>
        <path data-name="패스 22" d="m168.116 16.92-5.7-10.523-.011-.02h-3.469V23.56h2.86V11.684s.753 1.338.968 1.706l5.724 10.15.011.02h3.47V6.377h-2.86v12.385s-.822-1.533-.993-1.842z"/>
        <path data-name="패스 23" d="M184.26 11.847a4.777 4.777 0 0 0-1.787-1.063 7.035 7.035 0 0 0-2.249-.35 7.315 7.315 0 0 0-2.3.35 5.013 5.013 0 0 0-1.857 1.086 5.123 5.123 0 0 0-1.25 1.868 7.252 7.252 0 0 0-.454 2.691v1.321a7.267 7.267 0 0 0 .5 2.878 4.878 4.878 0 0 0 1.332 1.845 5.018 5.018 0 0 0 1.88.981 8.107 8.107 0 0 0 2.166.291 11 11 0 0 0 3.07-.372 7.907 7.907 0 0 0 2.189-1l.031-.02-1.243-2.175-.035.019a8.118 8.118 0 0 1-1.844.8 7.609 7.609 0 0 1-2.006.242 3.232 3.232 0 0 1-2.313-.765 3 3 0 0 1-.8-2.238h8.563v-2.148a6.683 6.683 0 0 0-.42-2.46 4.945 4.945 0 0 0-1.173-1.781zm-4.083 1.077a3.568 3.568 0 0 1 1.284.2 2.514 2.514 0 0 1 .867.548 1.987 1.987 0 0 1 .488.795 3.1 3.1 0 0 1 .149.961v.516h-5.668v-.447a2.559 2.559 0 0 1 .719-1.826 2.869 2.869 0 0 1 2.161-.742z"/>
        <path data-name="패스 24" d="M194.877 20.796a4.956 4.956 0 0 1-.931.287 4.664 4.664 0 0 1-.862.08 1.444 1.444 0 0 1-.891-.247 1.269 1.269 0 0 1-.32-1.034v-6.68h3.221v-2.49h-3.221V6.377l-3 1.068v3.267h-2.04v2.49h2.04v6.7a6.426 6.426 0 0 0 .186 1.621 2.861 2.861 0 0 0 .635 1.21 2.818 2.818 0 0 0 1.2.752 5.745 5.745 0 0 0 1.844.257 6.346 6.346 0 0 0 1.551-.175 6.243 6.243 0 0 0 1.084-.361l.028-.014-.479-2.418z"/>
        <path data-name="패스 25" d="M208.3 20.607h-.029l-2.194-9.864-.007-.031h-2.817l-2.317 9.895h-.028l-1.871-9.863-.006-.032h-3.212l3.187 12.818.007.03h3.469l2.109-8.991h.03l2.086 8.991h3.469l3.159-12.8.012-.049h-3z"/>
        <path data-name="패스 26" d="M224.616 11.975a5.3 5.3 0 0 0-1.9-1.145 7.926 7.926 0 0 0-4.951 0 5.28 5.28 0 0 0-1.891 1.144 5.112 5.112 0 0 0-1.221 1.845 6.882 6.882 0 0 0-.431 2.518v1.506a6.89 6.89 0 0 0 .431 2.505 5.088 5.088 0 0 0 1.215 1.857 5.291 5.291 0 0 0 1.891 1.144 7.936 7.936 0 0 0 4.951 0 5.277 5.277 0 0 0 1.9-1.144 5.1 5.1 0 0 0 1.214-1.857 6.889 6.889 0 0 0 .432-2.505v-1.506a6.881 6.881 0 0 0-.432-2.518 5.122 5.122 0 0 0-1.208-1.844zm-3.18 8.959a3.977 3.977 0 0 1-2.385 0 2.466 2.466 0 0 1-.947-.57 2.657 2.657 0 0 1-.627-1.028 4.591 4.591 0 0 1-.23-1.539v-1.414a3.407 3.407 0 0 1 .81-2.566 3.546 3.546 0 0 1 4.372 0 3.4 3.4 0 0 1 .81 2.566v1.414a4.625 4.625 0 0 1-.229 1.539 2.671 2.671 0 0 1-.628 1.028 2.457 2.457 0 0 1-.946.565z"/>
        <path data-name="패스 27" d="M235.96 10.504a7.009 7.009 0 0 0-.979-.07 3.9 3.9 0 0 0-2.236.587 4.245 4.245 0 0 0-1.339 1.513v-1.822h-2.884V23.56h3v-7.617a2.873 2.873 0 0 1 .218-1.132 2.766 2.766 0 0 1 .594-.891 2.613 2.613 0 0 1 .89-.582 2.959 2.959 0 0 1 1.109-.206 5.115 5.115 0 0 1 .92.069 3.344 3.344 0 0 1 .687.206l.04.017.859-2.72-.037-.013a4.953 4.953 0 0 0-.842-.187z"/>
        <path data-name="패스 28" d="m244.81 16.039 5-5.327h-3.794l-4.716 5.334v-9.67h-3v17.183h3v-3.825l1.415-1.572 3.448 5.379.012.018h3.828z"/>
    </g>
</svg>
